<svg data-name="Layer 2" xmlns="http://www.w3.org/2000/svg" xmlns:xlink="http://www.w3.org/1999/xlink" viewBox="0 0 1024 1024"><defs><linearGradient id="a" x1="676.39" y1="304.64" x2="823.21" y2="304.64" gradientUnits="userSpaceOnUse"><stop offset="0" stop-color="#26c9b8"/><stop offset="1" stop-color="#7eddd3"/></linearGradient><linearGradient id="b" x1="645.7" y1="387.16" x2="784.29" y2="387.16" xlink:href="#a"/><linearGradient id="c" x1="802.25" y1="268.54" x2="865.82" y2="268.54" xlink:href="#a"/><linearGradient id="d" x1="476" y1="275.24" x2="970.48" y2="275.24" xlink:href="#a"/><linearGradient id="e" x1="1005.52" y1="275.24" x2="1500" y2="275.24" xlink:href="#a"/><linearGradient id="f" x1="476" y1="804.76" x2="970.48" y2="804.76" xlink:href="#a"/><linearGradient id="g" x1="1005.52" y1="804.76" x2="1500" y2="804.76" xlink:href="#a"/></defs><path d="M769.32 235.35a6.29 6.29 0 00-8.8-2.79c-38 21.74-64.64 50-83.52 82.62a4.54 4.54 0 002 6.36l115 55.16a8.55 8.55 0 009.8-1.71l16.93-17.14a8.88 8.88 0 001.71-10z" transform="translate(-476 -28)" fill="url(#a)"/><path d="M781.1 411.22c-38.87-21.52-77-40.23-114.24-55.47a6.58 6.58 0 00-8.45 3.41c-8.54 18.72-13.18 37.11-12.68 55.08a5 5 0 005 4.81h133.56v-2.41a6.2 6.2 0 00-3.19-5.42z" transform="translate(-476 -28)" fill="url(#b)"/><path d="M858.39 199.23c-19.6 1.23-37.64 5.07-53.43 12.63a4.78 4.78 0 00-2.42 5.94c12.77 35.32 33.89 78.93 54 117.48a4.71 4.71 0 005.53 2.39h.08a4.72 4.72 0 003.23-4.47c.62-50.49.86-98.79-1.94-129.61a4.8 4.8 0 00-5.05-4.36z" transform="translate(-476 -28)" fill="url(#c)"/><path d="M944.57 28H501.9A25.91 25.91 0 00476 53.9v442.67a25.91 25.91 0 0025.9 25.91h442.67a25.91 25.91 0 0025.91-25.91V53.9A25.91 25.91 0 00944.57 28zm-60.43 362.31a10.53 10.53 0 01-3.22 7.58l-34.47 33.28a11.23 11.23 0 01-7.8 3.15h-278a9.57 9.57 0 01-9.14-6.68 24.74 24.74 0 010-15.43 9.29 9.29 0 018.36-6.39l20-1a11.94 11.94 0 009.24-4.87c2.75-3.91 3-9.17.38-15.89a8.42 8.42 0 00-5.68-5.14l-16.21-4.29a8.06 8.06 0 01-5.61-5.48c-2.37-7.88-1.48-15.41 3.72-22.49a8.51 8.51 0 018.44-3.23l18.34 3.47a9.65 9.65 0 006.41-1c6.91-3.76 9.43-9.78 6.22-18.75a8.38 8.38 0 00-3.72-4.42l-17.94-10.32a7.61 7.61 0 01-3.69-5.23q-2.54-14.26 8.9-21.55a9.08 9.08 0 018.75-.46l16.88 8a10.41 10.41 0 0012.6-2.82c2.17-2.73 3.62-6.45 4.49-10.95a9.29 9.29 0 00-2.94-8.64l-13.83-12.44a9.66 9.66 0 01-3-9.1c1.73-8.4 6.56-14.29 15.25-17.09a9.53 9.53 0 017.85.87l14.64 8.78a10 10 0 007.84 1.1c6.15-1.74 9.58-5.67 10.24-11.85a10.17 10.17 0 00-2.55-7.8l-10.92-12.28a8.69 8.69 0 01-1.28-9.66c3.51-6.93 9.38-11.76 17.3-14.75a10.46 10.46 0 0111.67 3l8.42 9.95a9.29 9.29 0 008.26 3.26 18.16 18.16 0 0011.66-6.36 12.37 12.37 0 00.55-15.63l-7.42-9.76a9 9 0 01-.66-9.9c4.53-7.88 11.7-12.52 23.3-11.76a7.18 7.18 0 015.59 3.32l8.83 13.94a10.19 10.19 0 009.48 4.75 21.13 21.13 0 0010.69-4.18 13 13 0 004.22-15.3l-4.3-10.87a9.39 9.39 0 011.27-9.28c5.51-6.93 12.74-9.32 21.63-7.28 3.8.86 6.83 3.71 8.23 8.44l2.12 7.13a12.71 12.71 0 009.06 8.78 16.69 16.69 0 0011.43-1c5.49-2.55 8.36-8.67 6.81-15.73l-2.12-9.68a8.15 8.15 0 012.57-7.91c6.78-5.82 14.57-6.42 23-3.72a10.14 10.14 0 017 9.88c-.4 18.83 6.2 23.54 26.21 19.46a5.55 5.55 0 016.65 5.45z" transform="translate(-476 -28)" fill="url(#d)"/><path d="M1474.37 28h-443.22a25.63 25.63 0 00-25.63 25.63v443.22a25.64 25.64 0 0025.63 25.63h443.22a25.63 25.63 0 0025.63-25.63V53.63A25.62 25.62 0 001474.37 28zm-65.1 233.42c-21.46 41.87-54.83 91.25-91.78 142.89a4.42 4.42 0 01-7.47-.45c-18.73-34-36.33-62.59-51-77.17a13 13 0 00-13.44-3l-16.29 5.66a15.8 15.8 0 00-8.08 6.36c-15.85 24.44-47.65 57.53-80.51 91.21a12.08 12.08 0 01-16.78.49l-26.32-23.95a9.53 9.53 0 01-1.55-12.26 409.27 409.27 0 0043.82-87.41 34.7 34.7 0 012.9-6.17c6.6-11 13.56-20.77 21.36-27.57a21 21 0 007.19-18.7l-2.5-18.47c13.67-21.69 27.72-40.9 42.71-53.75a22.2 22.2 0 016.29-3.8l30.34-12.14a12.09 12.09 0 019.1 0c24.08 9.91 40.49 23.07 42.84 42.2a12 12 0 009.42 10.31c31 6.4 62.81 18 95 32.42a9.72 9.72 0 014.75 13.3z" transform="translate(-476 -28)" fill="url(#e)"/><path d="M945.74 557.52h-445A24.74 24.74 0 00476 582.26v445a24.73 24.73 0 0024.73 24.74h445a24.74 24.74 0 0024.74-24.73v-445a24.74 24.74 0 00-24.73-24.75zm-63 113.76c-.88 5.62-3.65 6.86-7.7 11.29s.39 9.14-5.52 13.82-10.7 2.31-17 7-3.92 16.27-11.87 22.13-11-.5-18.09 7.29c-16.94 4.41 37.66 62 23.49 71.94-56.69 47.51-109.37 100.16-158.9 156.87-3.77-38.21 104.85-161.38 92.16-172.8S623.77 928 612.26 913.9s140-160.45 125.5-167.46c-13.42-6.48-138.88 95.16-169.38 94.2a2.62 2.62 0 01-1.4-4.75c24.92-18.1 141-137 154.66-152.26a7.77 7.77 0 014.66-2.53c16.78-2.37 55.35 26.74 64.53 23.37 6.75-4.54 6.21-10.46 9.47-18.11 8-7.16 11-2.45 19.61-10.2s3.47-20.56 11-21.35c6.4-.67 15.85-10.68 21.57-12.68 6.09-2.13 31.15 23.54 30.27 29.15z" transform="translate(-476 -28)" fill="url(#f)"/><path d="M1475 557.52h-444.45a25 25 0 00-25 25V1027a25 25 0 0025 25H1475a25 25 0 0025-25V582.55a25 25 0 00-25-25.03zm-102 315.06c-6.34 13.57-35 39.9-59.77 48.34a4.18 4.18 0 01-5.48-4.16c.64-23.82-28.25-74.26-72.7-88.28a8.6 8.6 0 01-5.78-6c-1.6-6.09-3.89-13.54-8.6-15 0 0-19.23-11.69-21.62-9s11.17 11 14.94 24.37 61.67 97.69 58.58 116.76-23.48 38.49-45.21 37.74-78-59.28-78.24-66.05 32.44-36.82 41.68-28.69 26 60.48 36.56 51.1-38-68.7-49.93-69.19-32.38-25.53-26.73-32.24-54.56-70.78-58.58-73.9c-2.77-7-3.07-66.77 0-73.91s29.4-36.23 39.71-39.71 71.87-3.3 85.31-1.57 55.71 24 59 37.35c2.65 10.79-3.39 61.18-5.77 79.88a12.17 12.17 0 006.16 12.17 53.56 53.56 0 0010.57 4.38 9.86 9.86 0 016.29 5.69c5.79 14 7.87 38 19.71 50.41 0 0 15.71 24.45 56 31.88a5.45 5.45 0 013.9 7.63z" transform="translate(-476 -28)" fill="url(#g)"/></svg>