<svg width="200" height="201" fill="none" xmlns="http://www.w3.org/2000/svg"><path d="M57.29 40.758a1.229 1.229 0 00-1.72-.545c-7.422 4.246-12.625 9.765-16.312 16.136a.886.886 0 00.39 1.243L62.11 68.365a1.67 1.67 0 001.914-.334l3.307-3.348a1.734 1.734 0 00.334-1.953L57.29 40.758z" fill="url(#paint0_linear)"/><path d="M59.59 75.107c-7.592-4.203-15.04-7.857-22.313-10.834a1.285 1.285 0 00-1.65.666c-1.668 3.657-2.574 7.248-2.477 10.758a.977.977 0 00.977.94h26.086v-.471a1.21 1.21 0 00-.623-1.059z" fill="url(#paint1_linear)"/><path d="M74.686 33.703c-3.829.24-7.352.99-10.436 2.467a.933.933 0 00-.473 1.16c2.495 6.898 6.62 15.416 10.547 22.945a.92.92 0 001.08.467h.016a.922.922 0 00.63-.873c.122-9.861.169-19.295-.378-25.315a.937.937 0 00-.986-.851z" fill="url(#paint2_linear)"/><path d="M91.518.26H5.058A5.06 5.06 0 000 5.318v86.46a5.06 5.06 0 005.059 5.06h86.459a5.06 5.06 0 005.06-5.06V5.317A5.06 5.06 0 0091.518.26zM79.715 71.023a2.055 2.055 0 01-.63 1.48l-6.731 6.5a2.194 2.194 0 01-1.524.616H16.533a1.869 1.869 0 01-1.785-1.305 4.833 4.833 0 010-3.013 1.815 1.815 0 011.633-1.249l3.906-.195a2.333 2.333 0 001.805-.951c.537-.764.586-1.791.074-3.104a1.644 1.644 0 00-1.11-1.003l-3.165-.838a1.575 1.575 0 01-1.096-1.07c-.463-1.54-.29-3.01.726-4.393a1.663 1.663 0 011.649-.631l3.582.678c.427.081.87.012 1.252-.196 1.35-.734 1.842-1.91 1.215-3.662a1.637 1.637 0 00-.727-.863l-3.504-2.016a1.487 1.487 0 01-.72-1.021c-.331-1.857.248-3.26 1.738-4.21a1.772 1.772 0 011.709-.089l3.297 1.563a2.033 2.033 0 002.46-.551c.424-.533.708-1.26.878-2.139a1.814 1.814 0 00-.575-1.687l-2.7-2.43a1.886 1.886 0 01-.587-1.777c.338-1.641 1.282-2.791 2.979-3.338a1.86 1.86 0 011.533.17l2.86 1.714a1.95 1.95 0 001.53.215c1.202-.34 1.872-1.107 2-2.314a1.987 1.987 0 00-.497-1.524l-2.133-2.398a1.697 1.697 0 01-.25-1.887c.685-1.353 1.832-2.297 3.379-2.88a2.043 2.043 0 012.279.585l1.645 1.944a1.816 1.816 0 001.613.636 3.547 3.547 0 002.277-1.242 2.416 2.416 0 00.107-3.053l-1.449-1.906a1.758 1.758 0 01-.129-1.933c.885-1.54 2.286-2.446 4.551-2.297a1.402 1.402 0 011.092.648L51.6 27.33a1.99 1.99 0 001.851.928 4.128 4.128 0 002.088-.817 2.54 2.54 0 00.824-2.988l-.84-2.123a1.834 1.834 0 01.248-1.813c1.077-1.353 2.489-1.82 4.225-1.421.742.167 1.334.724 1.607 1.648l.415 1.393a2.483 2.483 0 001.77 1.714 3.26 3.26 0 002.231-.195c1.073-.498 1.633-1.693 1.33-3.072l-.413-1.89a1.592 1.592 0 01.501-1.546c1.325-1.136 2.846-1.254 4.493-.726a1.98 1.98 0 011.367 1.93c-.078 3.677 1.21 4.597 5.119 3.8a1.083 1.083 0 011.299 1.065v47.806z" fill="url(#paint3_linear)"/><path d="M194.994.26h-86.566a5.006 5.006 0 00-5.006 5.005v86.567a5.004 5.004 0 005.006 5.006h86.566A5.007 5.007 0 00200 91.832V5.265a5 5 0 00-1.466-3.54 4.987 4.987 0 00-3.54-1.465zm-12.715 45.59c-4.191 8.177-10.709 17.822-17.925 27.908a.87.87 0 01-.754.359.86.86 0 01-.705-.447c-3.659-6.641-7.096-12.225-9.961-15.073a2.542 2.542 0 00-2.625-.586l-3.182 1.106a3.086 3.086 0 00-1.578 1.242c-3.096 4.774-9.307 11.236-15.725 17.815a2.358 2.358 0 01-3.277.095l-5.141-4.678a1.86 1.86 0 01-.302-2.394 79.955 79.955 0 008.558-17.072 6.76 6.76 0 01.567-1.205c1.289-2.149 2.648-4.057 4.171-5.385a4.098 4.098 0 001.405-3.652l-.489-3.608c2.67-4.236 5.414-7.988 8.342-10.498a4.345 4.345 0 011.229-.742l5.925-2.371a2.363 2.363 0 011.778 0c4.703 1.935 7.908 4.506 8.367 8.242a2.342 2.342 0 001.84 2.014c6.055 1.25 12.267 3.515 18.555 6.332a1.899 1.899 0 01.927 2.597z" fill="url(#paint4_linear)"/><path d="M91.746 103.681H4.832A4.83 4.83 0 000 108.513v86.914a4.827 4.827 0 002.981 4.465 4.828 4.828 0 001.85.368h86.913a4.831 4.831 0 004.832-4.831v-86.914a4.832 4.832 0 00-4.83-4.834zM79.441 125.9c-.172 1.098-.713 1.34-1.504 2.205-.79.865.077 1.785-1.078 2.699-1.154.915-2.09.452-3.32 1.368-1.23.916-.766 3.177-2.318 4.322-1.553 1.144-2.149-.098-3.534 1.424-3.308.861 7.356 12.109 4.588 14.051-11.072 9.279-21.36 19.562-31.035 30.638-.736-7.463 20.479-31.519 18-33.75-2.478-2.23-30.379 27.184-32.627 24.43-2.248-2.754 27.344-31.338 24.512-32.707-2.621-1.266-27.125 18.586-33.082 18.398a.514.514 0 01-.273-.927c4.867-3.536 27.539-26.758 30.207-29.739a1.52 1.52 0 01.91-.494c3.277-.463 10.81 5.223 12.603 4.565 1.319-.887 1.213-2.043 1.85-3.538 1.562-1.398 2.148-.478 3.83-1.992 1.682-1.513.678-4.015 2.148-4.17 1.25-.131 3.096-2.086 4.213-2.476 1.19-.416 6.084 4.597 5.912 5.693h-.002z" fill="url(#paint5_linear)"/><path d="M195.117 103.681h-86.806a4.884 4.884 0 00-4.883 4.883v86.813a4.884 4.884 0 004.883 4.883h86.806a4.884 4.884 0 004.883-4.883V108.57a4.876 4.876 0 00-1.428-3.456 4.875 4.875 0 00-3.455-1.433zm-19.922 61.536c-1.238 2.65-6.836 7.793-11.674 9.441a.819.819 0 01-1.07-.813c.125-4.652-5.517-14.503-14.199-17.242a1.677 1.677 0 01-1.129-1.172c-.312-1.189-.76-2.644-1.68-2.929 0 0-3.755-2.283-4.222-1.758-.467.525 2.181 2.148 2.918 4.76.736 2.611 12.045 19.08 11.441 22.804-.603 3.725-4.586 7.518-8.83 7.371-4.244-.146-15.234-11.578-15.281-12.9-.047-1.322 6.336-7.191 8.14-5.603 1.805 1.587 5.079 11.812 7.141 9.98 2.063-1.832-7.422-13.418-9.752-13.514-2.33-.095-6.324-4.986-5.221-6.297 1.104-1.31-10.656-13.824-11.441-14.433-.541-1.367-.6-13.041 0-14.436.6-1.394 5.742-7.076 7.756-7.756 2.013-.679 14.037-.644 16.662-.306 2.625.338 10.881 4.687 11.523 7.295.518 2.107-.662 11.949-1.127 15.601a2.379 2.379 0 001.204 2.377c.655.358 1.347.645 2.064.856a1.915 1.915 0 011.228 1.111c1.131 2.734 1.538 7.422 3.85 9.846 0 0 3.068 4.775 10.938 6.226a1.058 1.058 0 01.742.56 1.055 1.055 0 01.019.931z" fill="url(#paint6_linear)"/><defs><linearGradient id="paint0_linear" x1="17.412" y1=".259" x2="192.953" y2="8.016" gradientUnits="userSpaceOnUse"><stop stop-color="#33B3DF"/><stop offset="1" stop-color="#31D5D4"/></linearGradient><linearGradient id="paint1_linear" x1="17.412" y1=".259" x2="192.953" y2="8.016" gradientUnits="userSpaceOnUse"><stop stop-color="#33B3DF"/><stop offset="1" stop-color="#31D5D4"/></linearGradient><linearGradient id="paint2_linear" x1="17.412" y1=".259" x2="192.953" y2="8.016" gradientUnits="userSpaceOnUse"><stop stop-color="#33B3DF"/><stop offset="1" stop-color="#31D5D4"/></linearGradient><linearGradient id="paint3_linear" x1="17.412" y1=".259" x2="192.953" y2="8.016" gradientUnits="userSpaceOnUse"><stop stop-color="#33B3DF"/><stop offset="1" stop-color="#31D5D4"/></linearGradient><linearGradient id="paint4_linear" x1="17.412" y1=".259" x2="192.953" y2="8.016" gradientUnits="userSpaceOnUse"><stop stop-color="#33B3DF"/><stop offset="1" stop-color="#31D5D4"/></linearGradient><linearGradient id="paint5_linear" x1="17.412" y1=".259" x2="192.953" y2="8.016" gradientUnits="userSpaceOnUse"><stop stop-color="#33B3DF"/><stop offset="1" stop-color="#31D5D4"/></linearGradient><linearGradient id="paint6_linear" x1="17.412" y1=".259" x2="192.953" y2="8.016" gradientUnits="userSpaceOnUse"><stop stop-color="#33B3DF"/><stop offset="1" stop-color="#31D5D4"/></linearGradient></defs></svg>