<svg xmlns="http://www.w3.org/2000/svg" viewBox="0 0 512 512"><circle cx="256" cy="256" r="256" fill="#f2f2f2"/><path d="M465.589 403.037a68.65 68.65 0 01-1.024 1.452 257.83 257.83 0 01-21.264 26.018 235.994 235.994 0 01-4.451 4.66 258.33 258.33 0 01-16.405 15.339 254.96 254.96 0 01-19.456 15.109c-25.924 18.213-55.38 31.744-87.134 39.351l-39.215 6.207c-6.802.543-13.688.825-20.637.825-26.122 0-51.336-3.908-75.076-11.191a251.726 251.726 0 01-23.186-8.349 255.634 255.634 0 01-55.265-31.587c-.909-.679-1.808-1.369-2.706-2.048L44.714 111.427l-2.56-16.154c-2.247-14.158 7.408-27.449 21.567-29.696l25.851-4.096 264.652-41.942 23.709-3.762c14.158-2.236 27.449 7.419 29.696 21.567l2.226 14.033 55.734 351.66z" fill="#fff"/><path d="M163.466 100.079l221.902-35.16 1.471 9.288-221.901 35.16zm14.264 90.043l221.901-35.16 1.472 9.288-221.902 35.16zm14.283 90.053l221.902-35.16 1.472 9.288-221.902 35.16zm14.255 90.04l221.901-35.16 1.472 9.289-221.901 35.16zm237.033 60.292a235.994 235.994 0 01-4.451 4.66l-216.816 34.367-1.473-9.289 221.884-35.171.856 5.433z" fill="#e6e6e6"/><g fill="#ff9500"><circle cx="113.55" cy="158.9" r="20.237"/><path d="M118.134 187.791c-15.934 2.526-30.951-8.383-33.476-24.317s8.383-30.951 24.317-33.476c15.934-2.526 30.951 8.383 33.476 24.317 2.525 15.933-8.384 30.952-24.317 33.476zm-8.333-52.578c-13.058 2.07-21.998 14.377-19.929 27.436s14.378 21.998 27.436 19.929 21.998-14.377 19.929-27.436-14.378-21.999-27.436-19.929z"/></g><g fill="#1badf8"><circle cx="127.82" cy="248.94" r="20.237"/><path d="M132.404 277.835c-15.934 2.526-30.951-8.383-33.476-24.317-2.526-15.934 8.383-30.951 24.317-33.476s30.951 8.383 33.476 24.317c2.526 15.933-8.383 30.951-24.317 33.476zm-8.333-52.579c-13.058 2.07-21.998 14.377-19.929 27.436s14.378 21.998 27.436 19.929c13.058-2.07 21.998-14.377 19.929-27.436s-14.378-21.998-27.436-19.929z"/></g><g fill="#63da38"><circle cx="142.1" cy="338.99" r="20.237"/><path d="M146.675 367.878c-15.934 2.526-30.951-8.383-33.476-24.317s8.383-30.951 24.317-33.476c15.934-2.526 30.951 8.383 33.476 24.317 2.526 15.933-8.383 30.951-24.317 33.476zm-8.333-52.578c-13.058 2.07-21.998 14.377-19.929 27.436s14.378 21.998 27.436 19.929c13.058-2.07 21.998-14.377 19.929-27.436-2.069-13.059-14.378-21.999-27.436-19.929z"/></g><g fill="#cb73e1"><circle cx="156.37" cy="429.02" r="20.237"/><path d="M160.947 457.922c-15.934 2.526-30.951-8.383-33.476-24.317-2.526-15.934 8.383-30.951 24.317-33.476s30.951 8.383 33.476 24.317c2.524 15.934-8.385 30.951-24.317 33.476zm-8.333-52.579c-13.058 2.07-21.998 14.377-19.929 27.436 2.07 13.058 14.378 21.998 27.436 19.929 13.058-2.07 21.998-14.377 19.929-27.436-2.07-13.059-14.378-21.999-27.436-19.929z"/></g></svg>